<svg width="20" height="20" viewBox="0 0 20 20" fill="none" xmlns="http://www.w3.org/2000/svg">
<g clip-path="url(#clip0)">
<path d="M10 19.999C15.5228 19.999 20 15.5218 20 9.99899C20 4.47615 15.5228 -0.00100708 10 -0.00100708C4.47715 -0.00100708 0 4.47615 0 9.99899C0 15.5218 4.47715 19.999 10 19.999Z" fill="#007AB9"/>
<path d="M15.974 10.8045V14.9273H13.5837V11.0808C13.5837 10.115 13.2386 9.45542 12.3732 9.45542C11.7127 9.45542 11.3203 9.89946 11.1471 10.3294C11.0842 10.4831 11.0679 10.6965 11.0679 10.912V14.9271H8.67747C8.67747 14.9271 8.70956 8.41242 8.67747 7.73807H11.0681V8.75682C11.0633 8.76484 11.0565 8.77269 11.0522 8.78035H11.0681V8.75682C11.3858 8.26803 11.9523 7.56926 13.2224 7.56926C14.795 7.56926 15.974 8.59674 15.974 10.8045ZM6.17685 4.27271C5.35917 4.27271 4.82422 4.80944 4.82422 5.51464C4.82422 6.20486 5.34367 6.75711 6.14548 6.75711H6.16099C6.99471 6.75711 7.51308 6.20486 7.51308 5.51464C7.49722 4.80944 6.99471 4.27271 6.17685 4.27271ZM4.96629 14.9273H7.35586V7.73807H4.96629V14.9273Z" fill="#F1F2F2"/>
</g>
<defs>
<clipPath id="clip0">
<rect width="20" height="20" fill="white"/>
</clipPath>
</defs>
</svg>
