<svg width="20" height="20" viewBox="0 0 20 20" fill="none" xmlns="http://www.w3.org/2000/svg">
<g clip-path="url(#clip0)">
<path d="M10.0019 19.9998C15.5247 19.9998 20.0018 15.5227 20.0018 9.99991C20.0018 4.47711 15.5247 0 10.0019 0C4.47907 0 0.00195312 4.47711 0.00195312 9.99991C0.00195312 15.5227 4.47907 19.9998 10.0019 19.9998Z" fill="#55ACEE"/>
<path d="M16.1271 7.18665C15.6986 7.37667 15.2376 7.5052 14.7542 7.5626C15.2478 7.26687 15.6266 6.79894 15.8054 6.24046C15.3435 6.51444 14.8317 6.7132 14.2875 6.82033C13.8515 6.35597 13.2303 6.06577 12.5424 6.06577C11.2226 6.06577 10.1521 7.1362 10.1521 8.45603C10.1521 8.64337 10.1733 8.82573 10.2143 9.00078C8.22782 8.90113 6.46645 7.94959 5.28746 6.50303C5.08175 6.85598 4.96374 7.26687 4.96374 7.70485C4.96374 8.53392 5.38603 9.26585 6.02705 9.69438C5.63542 9.68208 5.2666 9.57459 4.94449 9.39509C4.94431 9.40525 4.94431 9.41541 4.94431 9.42539C4.94431 10.5835 5.76858 11.5495 6.86183 11.7689C6.66147 11.8239 6.44988 11.8529 6.23222 11.8529C6.07785 11.8529 5.92829 11.8381 5.78248 11.8103C6.08659 12.7597 6.96914 13.4508 8.01534 13.4702C7.19713 14.1114 6.16663 14.4934 5.04645 14.4934C4.85393 14.4934 4.6632 14.4822 4.47656 14.4599C5.53381 15.1384 6.79053 15.5339 8.1403 15.5339C12.5368 15.5339 14.9412 11.8918 14.9412 8.73286C14.9412 8.62929 14.9389 8.52608 14.9342 8.42376C15.4016 8.08685 15.8068 7.66599 16.1271 7.18665Z" fill="#F1F2F2"/>
</g>
<defs>
<clipPath id="clip0">
<rect width="20" height="20" fill="white"/>
</clipPath>
</defs>
</svg>
