<svg width="26" height="26" viewBox="0 0 26 26" fill="none" xmlns="http://www.w3.org/2000/svg">
<g clip-path="url(#clip0)">
<path d="M12.9492 -0.0507812C5.76942 -0.0507812 -0.0507812 5.76942 -0.0507812 12.9492C-0.0507812 20.129 5.76942 25.9492 12.9492 25.9492C20.129 25.9492 25.9492 20.129 25.9492 12.9492C25.9407 5.773 20.1254 -0.0422516 12.9492 -0.0507812ZM12.9492 24.3242C6.66702 24.3242 1.57422 19.2314 1.57422 12.9492C1.57422 6.66702 6.66702 1.57422 12.9492 1.57422C19.2314 1.57422 24.3242 6.66702 24.3242 12.9492C24.3175 19.2286 19.2286 24.3175 12.9492 24.3242Z" fill="#A90101"/>
<path d="M19.269 6.62984C18.9516 6.31265 18.4372 6.31265 18.12 6.62984L12.9493 11.8006L7.77852 6.62984C7.46669 6.3071 6.95233 6.29817 6.62959 6.61C6.30686 6.92163 6.29793 7.43599 6.60976 7.75873C6.6163 7.76547 6.62285 7.77222 6.62959 7.77876L11.8004 12.9495L6.62959 18.1203C6.30686 18.4319 6.29793 18.9463 6.60976 19.2692C6.92139 19.592 7.43575 19.6009 7.75849 19.2891C7.76523 19.2825 7.77197 19.276 7.77852 19.2692L12.9493 14.0985L18.12 19.2692C18.4428 19.5808 18.9571 19.5719 19.2688 19.2492C19.5729 18.9344 19.5729 18.4351 19.2688 18.1203L14.0982 12.9495L19.269 7.77876C19.5862 7.46158 19.5862 6.94722 19.269 6.62984Z" fill="#A90101"/>
</g>
<defs>
<clipPath id="clip0">
<rect width="26" height="26" fill="white"/>
</clipPath>
</defs>
</svg>
